{
  "name": "Claude Motion Demo",
  "bpm": 128,
  "totalSteps": 64,
  "tracks": [
    {
      "name": "Drums",
      "type": "drums",
      "muted": false,
      "solo": false,
      "volume": 0.85,
      "pan": 0,
      "notes": [
        { "id": "k1", "step": 0, "pitch": 0, "velocity": 100, "duration": 1 },
        { "id": "k2", "step": 4, "pitch": 0, "velocity": 95, "duration": 1 },
        { "id": "k3", "step": 8, "pitch": 0, "velocity": 100, "duration": 1 },
        { "id": "k4", "step": 12, "pitch": 0, "velocity": 95, "duration": 1 },
        { "id": "k5", "step": 14, "pitch": 0, "velocity": 80, "duration": 1 },
        { "id": "k6", "step": 16, "pitch": 0, "velocity": 100, "duration": 1 },
        { "id": "k7", "step": 20, "pitch": 0, "velocity": 95, "duration": 1 },
        { "id": "k8", "step": 24, "pitch": 0, "velocity": 100, "duration": 1 },
        { "id": "k9", "step": 28, "pitch": 0, "velocity": 95, "duration": 1 },
        { "id": "k10", "step": 30, "pitch": 0, "velocity": 80, "duration": 1 },
        { "id": "k11", "step": 32, "pitch": 0, "velocity": 100, "duration": 1 },
        { "id": "k12", "step": 36, "pitch": 0, "velocity": 95, "duration": 1 },
        { "id": "k13", "step": 40, "pitch": 0, "velocity": 100, "duration": 1 },
        { "id": "k14", "step": 44, "pitch": 0, "velocity": 95, "duration": 1 },
        { "id": "k15", "step": 46, "pitch": 0, "velocity": 80, "duration": 1 },
        { "id": "k16", "step": 48, "pitch": 0, "velocity": 100, "duration": 1 },
        { "id": "k17", "step": 52, "pitch": 0, "velocity": 95, "duration": 1 },
        { "id": "k18", "step": 56, "pitch": 0, "velocity": 100, "duration": 1 },
        { "id": "k19", "step": 60, "pitch": 0, "velocity": 95, "duration": 1 },
        { "id": "s1", "step": 4, "pitch": 1, "velocity": 90, "duration": 1 },
        { "id": "s2", "step": 12, "pitch": 1, "velocity": 90, "duration": 1 },
        { "id": "s3", "step": 20, "pitch": 1, "velocity": 90, "duration": 1 },
        { "id": "s4", "step": 28, "pitch": 1, "velocity": 90, "duration": 1 },
        { "id": "s5", "step": 36, "pitch": 1, "velocity": 90, "duration": 1 },
        { "id": "s6", "step": 44, "pitch": 1, "velocity": 90, "duration": 1 },
        { "id": "s7", "step": 52, "pitch": 1, "velocity": 90, "duration": 1 },
        { "id": "s8", "step": 60, "pitch": 1, "velocity": 95, "duration": 1 },
        { "id": "h1", "step": 2, "pitch": 2, "velocity": 55, "duration": 1 },
        { "id": "h2", "step": 6, "pitch": 2, "velocity": 55, "duration": 1 },
        { "id": "h3", "step": 10, "pitch": 2, "velocity": 55, "duration": 1 },
        { "id": "h4", "step": 14, "pitch": 6, "velocity": 70, "duration": 1 },
        { "id": "h5", "step": 18, "pitch": 2, "velocity": 55, "duration": 1 },
        { "id": "h6", "step": 22, "pitch": 2, "velocity": 55, "duration": 1 },
        { "id": "h7", "step": 26, "pitch": 2, "velocity": 55, "duration": 1 },
        { "id": "h8", "step": 30, "pitch": 6, "velocity": 70, "duration": 1 },
        { "id": "h9", "step": 34, "pitch": 2, "velocity": 55, "duration": 1 },
        { "id": "h10", "step": 38, "pitch": 2, "velocity": 55, "duration": 1 },
        { "id": "h11", "step": 42, "pitch": 2, "velocity": 55, "duration": 1 },
        { "id": "h12", "step": 46, "pitch": 6, "velocity": 70, "duration": 1 },
        { "id": "h13", "step": 50, "pitch": 2, "velocity": 55, "duration": 1 },
        { "id": "h14", "step": 54, "pitch": 2, "velocity": 55, "duration": 1 },
        { "id": "h15", "step": 58, "pitch": 2, "velocity": 55, "duration": 1 },
        { "id": "h16", "step": 62, "pitch": 6, "velocity": 75, "duration": 1 }
      ],
      "effects": {}
    },
    {
      "name": "Bass",
      "type": "synth",
      "muted": false,
      "solo": false,
      "volume": 0.75,
      "pan": 0,
      "notes": [
        { "id": "b1", "step": 0, "pitch": 36, "velocity": 100, "duration": 3 },
        { "id": "b2", "step": 6, "pitch": 36, "velocity": 85, "duration": 2 },
        { "id": "b3", "step": 10, "pitch": 43, "velocity": 90, "duration": 2 },
        { "id": "b4", "step": 14, "pitch": 41, "velocity": 85, "duration": 2 },
        { "id": "b5", "step": 16, "pitch": 36, "velocity": 100, "duration": 3 },
        { "id": "b6", "step": 22, "pitch": 36, "velocity": 85, "duration": 2 },
        { "id": "b7", "step": 26, "pitch": 43, "velocity": 90, "duration": 2 },
        { "id": "b8", "step": 30, "pitch": 39, "velocity": 85, "duration": 2 },
        { "id": "b9", "step": 32, "pitch": 36, "velocity": 100, "duration": 3 },
        { "id": "b10", "step": 38, "pitch": 36, "velocity": 85, "duration": 2 },
        { "id": "b11", "step": 42, "pitch": 43, "velocity": 90, "duration": 2 },
        { "id": "b12", "step": 46, "pitch": 41, "velocity": 85, "duration": 2 },
        { "id": "b13", "step": 48, "pitch": 36, "velocity": 100, "duration": 3 },
        { "id": "b14", "step": 54, "pitch": 36, "velocity": 85, "duration": 2 },
        { "id": "b15", "step": 58, "pitch": 48, "velocity": 95, "duration": 2 },
        { "id": "b16", "step": 62, "pitch": 46, "velocity": 90, "duration": 2 }
      ],
      "effects": {}
    },
    {
      "name": "Lead",
      "type": "synth",
      "muted": false,
      "solo": false,
      "volume": 0.5,
      "pan": -0.1,
      "notes": [
        { "id": "l1", "step": 0, "pitch": 72, "velocity": 85, "duration": 4 },
        { "id": "l2", "step": 8, "pitch": 75, "velocity": 80, "duration": 4 },
        { "id": "l3", "step": 16, "pitch": 77, "velocity": 90, "duration": 6 },
        { "id": "l4", "step": 24, "pitch": 79, "velocity": 95, "duration": 6 },
        { "id": "l5", "step": 32, "pitch": 72, "velocity": 85, "duration": 4 },
        { "id": "l6", "step": 40, "pitch": 75, "velocity": 80, "duration": 4 },
        { "id": "l7", "step": 48, "pitch": 77, "velocity": 90, "duration": 4 },
        { "id": "l8", "step": 56, "pitch": 84, "velocity": 100, "duration": 8 }
      ],
      "effects": {}
    },
    {
      "name": "Chords",
      "type": "synth",
      "muted": false,
      "solo": false,
      "volume": 0.35,
      "pan": 0.1,
      "notes": [
        { "id": "c1", "step": 0, "pitch": 60, "velocity": 70, "duration": 8 },
        { "id": "c2", "step": 0, "pitch": 67, "velocity": 65, "duration": 8 },
        { "id": "c3", "step": 16, "pitch": 65, "velocity": 70, "duration": 8 },
        { "id": "c4", "step": 16, "pitch": 69, "velocity": 65, "duration": 8 },
        { "id": "c5", "step": 32, "pitch": 60, "velocity": 70, "duration": 8 },
        { "id": "c6", "step": 32, "pitch": 67, "velocity": 65, "duration": 8 },
        { "id": "c7", "step": 48, "pitch": 63, "velocity": 75, "duration": 8 },
        { "id": "c8", "step": 48, "pitch": 67, "velocity": 70, "duration": 8 },
        { "id": "c9", "step": 56, "pitch": 67, "velocity": 80, "duration": 8 },
        { "id": "c10", "step": 56, "pitch": 72, "velocity": 75, "duration": 8 }
      ],
      "effects": {}
    },
    {
      "name": "Sparkle",
      "type": "synth",
      "muted": false,
      "solo": false,
      "volume": 0.4,
      "pan": 0.2,
      "instrument": {
        "oscillator": "triangle",
        "attack": 0.01,
        "decay": 0.15,
        "sustain": 0.2,
        "release": 0.3,
        "filterFreq": 6000,
        "filterRes": 1
      },
      "notes": [
        { "id": "sp1", "step": 32, "pitch": 84, "velocity": 70, "duration": 1 },
        { "id": "sp2", "step": 33, "pitch": 87, "velocity": 65, "duration": 1 },
        { "id": "sp3", "step": 34, "pitch": 91, "velocity": 75, "duration": 1 },
        { "id": "sp4", "step": 35, "pitch": 96, "velocity": 80, "duration": 2 },
        { "id": "sp5", "step": 38, "pitch": 91, "velocity": 60, "duration": 1 },
        { "id": "sp6", "step": 39, "pitch": 87, "velocity": 55, "duration": 1 },
        { "id": "sp7", "step": 40, "pitch": 84, "velocity": 70, "duration": 1 },
        { "id": "sp8", "step": 41, "pitch": 79, "velocity": 65, "duration": 1 },
        { "id": "sp9", "step": 42, "pitch": 84, "velocity": 75, "duration": 1 },
        { "id": "sp10", "step": 43, "pitch": 87, "velocity": 70, "duration": 1 },
        { "id": "sp11", "step": 44, "pitch": 91, "velocity": 80, "duration": 2 },
        { "id": "sp12", "step": 48, "pitch": 96, "velocity": 85, "duration": 1 },
        { "id": "sp13", "step": 49, "pitch": 91, "velocity": 75, "duration": 1 },
        { "id": "sp14", "step": 50, "pitch": 87, "velocity": 70, "duration": 1 },
        { "id": "sp15", "step": 51, "pitch": 84, "velocity": 65, "duration": 1 },
        { "id": "sp16", "step": 52, "pitch": 87, "velocity": 75, "duration": 1 },
        { "id": "sp17", "step": 53, "pitch": 91, "velocity": 80, "duration": 1 },
        { "id": "sp18", "step": 54, "pitch": 96, "velocity": 85, "duration": 1 },
        { "id": "sp19", "step": 55, "pitch": 91, "velocity": 70, "duration": 1 },
        { "id": "sp20", "step": 56, "pitch": 96, "velocity": 90, "duration": 2 },
        { "id": "sp21", "step": 58, "pitch": 103, "velocity": 85, "duration": 2 },
        { "id": "sp22", "step": 60, "pitch": 108, "velocity": 95, "duration": 4 }
      ],
      "effects": {}
    }
  ]
}
