{
  "name": "Morning Sunrise",
  "description": "A gentle, uplifting piece perfect for watching the sunrise",
  "bpm": 92,
  "total_steps": 64,
  "steps_per_measure": 16,
  "tags": ["chill", "ambient", "melody"],
  "tracks": [
    {
      "name": "Warm Pad",
      "type": "fm",
      "instrument": { "harmonicity": 2, "modulationIndex": 4, "attack": 0.8, "decay": 0.3, "sustain": 0.7, "release": 1.5 },
      "effects": { "reverb": { "enabled": true, "roomSize": 0.6, "wet": 0.4 }, "chorus": { "enabled": true, "frequency": 0.8, "depth": 0.4, "wet": 0.25 } },
      "volume": 0.5,
      "pan": 0,
      "muted": false,
      "solo": false,
      "notes": [
        {"pitch": 60, "step": 0, "duration": 16, "velocity": 70},
        {"pitch": 64, "step": 0, "duration": 16, "velocity": 65},
        {"pitch": 67, "step": 0, "duration": 16, "velocity": 60},
        {"pitch": 55, "step": 16, "duration": 16, "velocity": 70},
        {"pitch": 59, "step": 16, "duration": 16, "velocity": 65},
        {"pitch": 62, "step": 16, "duration": 16, "velocity": 60},
        {"pitch": 57, "step": 32, "duration": 16, "velocity": 70},
        {"pitch": 60, "step": 32, "duration": 16, "velocity": 65},
        {"pitch": 64, "step": 32, "duration": 16, "velocity": 60},
        {"pitch": 53, "step": 48, "duration": 16, "velocity": 70},
        {"pitch": 57, "step": 48, "duration": 16, "velocity": 65},
        {"pitch": 60, "step": 48, "duration": 16, "velocity": 60}
      ]
    },
    {
      "name": "Sparkle Arp",
      "type": "pluck",
      "instrument": { "attackNoise": 0.8, "dampening": 3500, "resonance": 0.92, "release": 1.2 },
      "effects": { "delay": { "enabled": true, "time": "8n.", "feedback": 0.35, "wet": 0.3 }, "reverb": { "enabled": true, "roomSize": 0.5, "wet": 0.35 } },
      "volume": 0.45,
      "pan": 0.2,
      "muted": false,
      "solo": false,
      "notes": [
        {"pitch": 72, "step": 0, "duration": 2, "velocity": 85},
        {"pitch": 76, "step": 2, "duration": 2, "velocity": 75},
        {"pitch": 79, "step": 4, "duration": 2, "velocity": 80},
        {"pitch": 84, "step": 6, "duration": 2, "velocity": 70},
        {"pitch": 79, "step": 8, "duration": 2, "velocity": 75},
        {"pitch": 76, "step": 10, "duration": 2, "velocity": 70},
        {"pitch": 72, "step": 12, "duration": 2, "velocity": 80},
        {"pitch": 67, "step": 14, "duration": 2, "velocity": 65},
        {"pitch": 67, "step": 16, "duration": 2, "velocity": 85},
        {"pitch": 71, "step": 18, "duration": 2, "velocity": 75},
        {"pitch": 74, "step": 20, "duration": 2, "velocity": 80},
        {"pitch": 79, "step": 22, "duration": 2, "velocity": 70},
        {"pitch": 74, "step": 24, "duration": 2, "velocity": 75},
        {"pitch": 71, "step": 26, "duration": 2, "velocity": 70},
        {"pitch": 67, "step": 28, "duration": 2, "velocity": 80},
        {"pitch": 62, "step": 30, "duration": 2, "velocity": 65},
        {"pitch": 69, "step": 32, "duration": 2, "velocity": 85},
        {"pitch": 72, "step": 34, "duration": 2, "velocity": 75},
        {"pitch": 76, "step": 36, "duration": 2, "velocity": 80},
        {"pitch": 81, "step": 38, "duration": 2, "velocity": 70},
        {"pitch": 76, "step": 40, "duration": 2, "velocity": 75},
        {"pitch": 72, "step": 42, "duration": 2, "velocity": 70},
        {"pitch": 69, "step": 44, "duration": 2, "velocity": 80},
        {"pitch": 64, "step": 46, "duration": 2, "velocity": 65},
        {"pitch": 65, "step": 48, "duration": 2, "velocity": 85},
        {"pitch": 69, "step": 50, "duration": 2, "velocity": 75},
        {"pitch": 72, "step": 52, "duration": 2, "velocity": 80},
        {"pitch": 77, "step": 54, "duration": 2, "velocity": 70},
        {"pitch": 72, "step": 56, "duration": 2, "velocity": 75},
        {"pitch": 69, "step": 58, "duration": 2, "velocity": 70},
        {"pitch": 65, "step": 60, "duration": 2, "velocity": 80},
        {"pitch": 60, "step": 62, "duration": 2, "velocity": 65}
      ]
    },
    {
      "name": "Melody",
      "type": "synth",
      "instrument": { "oscillator": "sine", "attack": 0.15, "decay": 0.2, "sustain": 0.6, "release": 0.8, "filterFreq": 2500, "filterRes": 1 },
      "effects": { "reverb": { "enabled": true, "roomSize": 0.45, "wet": 0.3 }, "delay": { "enabled": true, "time": "4n", "feedback": 0.2, "wet": 0.2 } },
      "volume": 0.5,
      "pan": -0.15,
      "muted": false,
      "solo": false,
      "notes": [
        {"pitch": 79, "step": 4, "duration": 4, "velocity": 90},
        {"pitch": 84, "step": 10, "duration": 6, "velocity": 85},
        {"pitch": 83, "step": 20, "duration": 4, "velocity": 88},
        {"pitch": 79, "step": 26, "duration": 6, "velocity": 82},
        {"pitch": 76, "step": 36, "duration": 4, "velocity": 90},
        {"pitch": 81, "step": 42, "duration": 6, "velocity": 85},
        {"pitch": 77, "step": 52, "duration": 4, "velocity": 88},
        {"pitch": 72, "step": 58, "duration": 6, "velocity": 80}
      ]
    },
    {
      "name": "Soft Drums",
      "type": "drums",
      "instrument": {},
      "effects": { "reverb": { "enabled": true, "roomSize": 0.3, "wet": 0.2 } },
      "volume": 0.35,
      "pan": 0,
      "muted": false,
      "solo": false,
      "notes": [
        {"pitch": 0, "step": 0, "duration": 1, "velocity": 60},
        {"pitch": 2, "step": 4, "duration": 1, "velocity": 50},
        {"pitch": 2, "step": 8, "duration": 1, "velocity": 45},
        {"pitch": 0, "step": 12, "duration": 1, "velocity": 55},
        {"pitch": 2, "step": 14, "duration": 1, "velocity": 40},
        {"pitch": 0, "step": 16, "duration": 1, "velocity": 60},
        {"pitch": 2, "step": 20, "duration": 1, "velocity": 50},
        {"pitch": 2, "step": 24, "duration": 1, "velocity": 45},
        {"pitch": 0, "step": 28, "duration": 1, "velocity": 55},
        {"pitch": 2, "step": 30, "duration": 1, "velocity": 40},
        {"pitch": 0, "step": 32, "duration": 1, "velocity": 60},
        {"pitch": 2, "step": 36, "duration": 1, "velocity": 50},
        {"pitch": 2, "step": 40, "duration": 1, "velocity": 45},
        {"pitch": 0, "step": 44, "duration": 1, "velocity": 55},
        {"pitch": 2, "step": 46, "duration": 1, "velocity": 40},
        {"pitch": 0, "step": 48, "duration": 1, "velocity": 60},
        {"pitch": 2, "step": 52, "duration": 1, "velocity": 50},
        {"pitch": 2, "step": 56, "duration": 1, "velocity": 45},
        {"pitch": 0, "step": 60, "duration": 1, "velocity": 55},
        {"pitch": 2, "step": 62, "duration": 1, "velocity": 40}
      ]
    }
  ]
}
